# xmcd
#
# Track frame offsets: 
#        150
#        13815
#        28952
#        55608
#        76945
#        90675
#        114575
#        139052
#        166430
#        188946
#        212177
#        226157
#        243118
#
# Disc length: 3500 seconds
#
# Revision: 2
# Processed by: cddbd v1.5.2PL0 Copyright (c) Steve Scherf et al.
# Submitted via: ExactAudioCopy v1.1
#
DISCID=a80daa0d
DTITLE=(Various Artists) - Nova Soul 3
DYEAR=2006
DGENRE=Nu Soul
TTITLE0=Pimp Daddy Nash - Another Day In Paradise
TTITLE1=Dwight Trible - Try Love
TTITLE2=Nostalgia 77 - Changes
TTITLE3=The Dining Rooms - No Problem (7 Samurai Remix)
TTITLE4=Jamie Lidell - A Little Bit More
TTITLE5=The Juju Orchestra - Take Four
TTITLE6=Rephrase (Feat. Vandal) - Chase Your Tail
TTITLE7=Spice - Big Blue Sky (Frank Popp Ensemble Remix)
TTITLE8=Beef Wellington - Feel Fantabulous
TTITLE9=The NonMaterial (Feat. Denise M'Baye) - Jaja
TTITLE10=Linn and Freddie - Linn
TTITLE11=One Self - Bluebird
TTITLE12=Swamburger - Life and Death
EXTD=
EXTT0=
EXTT1=
EXTT2=
EXTT3=
EXTT4=
EXTT5=
EXTT6=
EXTT7=
EXTT8=
EXTT9=
EXTT10=
EXTT11=
EXTT12=
PLAYORDER=
